<svg width="79" height="79" viewBox="0 0 79 79" fill="none" xmlns="http://www.w3.org/2000/svg">
<rect width="75" height="75" transform="translate(2 2)" fill="white"/>
<rect x="1" y="1" width="77" height="77" rx="3" stroke="#32517D" stroke-width="2"/>
<rect x="38" y="12" width="4" height="4" fill="black"/>
<rect x="38" y="12" width="4" height="4" fill="black"/>
<rect x="42" y="16" width="4" height="4" fill="black"/>
<rect x="50" y="28" width="4" height="4" fill="black"/>
<rect x="46" y="24" width="4" height="4" fill="black"/>
<rect x="46" y="20" width="4" height="4" fill="black"/>
<rect x="30" y="20" width="4" height="4" fill="black"/>
<rect x="30" y="24" width="4" height="4" fill="black"/>
<rect x="34" y="16" width="4" height="4" fill="black"/>
<rect x="26" y="28" width="4" height="4" fill="black"/>
<rect x="22" y="36" width="4" height="4" fill="black"/>
<rect x="62" y="48" width="4" height="4" fill="black"/>
<rect x="62" y="44" width="4" height="4" fill="black"/>
<rect x="14" y="48" width="4" height="4" fill="black"/>
<rect x="54" y="56" width="4" height="4" fill="black"/>
<rect x="58" y="56" width="4" height="4" fill="black"/>
<rect x="30" y="60" width="4" height="4" fill="black"/>
<rect x="26" y="60" width="4" height="4" fill="black"/>
<rect x="38" y="64" width="4" height="4" fill="black"/>
<rect x="34" y="64" width="4" height="4" fill="black"/>
<rect x="50" y="60" width="4" height="4" fill="black"/>
<rect x="46" y="60" width="4" height="4" fill="black"/>
<rect x="42" y="64" width="4" height="4" fill="black"/>
<rect x="22" y="56" width="4" height="4" fill="black"/>
<rect x="18" y="56" width="4" height="4" fill="black"/>
<rect x="62" y="52" width="4" height="4" fill="black"/>
<rect x="14" y="52" width="4" height="4" fill="black"/>
<rect x="14" y="44" width="4" height="4" fill="black"/>
<rect x="58" y="40" width="4" height="4" fill="black"/>
<rect x="18" y="40" width="4" height="4" fill="black"/>
<rect x="22" y="32" width="4" height="4" fill="black"/>
<rect x="54" y="36" width="4" height="4" fill="black"/>
<rect x="54" y="32" width="4" height="4" fill="black"/>
<rect x="38" y="16" width="4" height="4" fill="#FF5555"/>
<rect x="22" y="40" width="4" height="4" fill="#FF5555"/>
<rect x="54" y="40" width="4" height="4" fill="#FF5555"/>
<rect x="42" y="20" width="4" height="4" fill="#FF5555"/>
<rect x="38" y="20" width="4" height="4" fill="#FF5555"/>
<rect x="34" y="20" width="4" height="4" fill="#FF5555"/>
<rect x="42" y="28" width="4" height="4" fill="#D9D9D9"/>
<rect x="38" y="28" width="4" height="4" fill="#D9D9D9"/>
<rect x="34" y="28" width="4" height="4" fill="#FF5555"/>
<rect x="26" y="32" width="28" height="18" fill="#FF5555"/>
<rect x="38" y="32" width="4" height="4" fill="#FF5555"/>
<rect x="26" y="32" width="12" height="4" fill="#FF5555"/>
<rect x="42" y="28" width="4" height="4" fill="#FF5555"/>
<rect x="38" y="28" width="4" height="4" fill="#FF5555"/>
<rect x="30" y="28" width="4" height="4" fill="#FF5555"/>
<rect x="46" y="28" width="4" height="4" fill="#FF5555"/>
<rect x="42" y="24" width="4" height="4" fill="#FF5555"/>
<rect x="38" y="24" width="4" height="4" fill="#FF5555"/>
<rect x="34" y="24" width="4" height="4" fill="#FF5555"/>
<rect x="22" y="44" width="4" height="4" fill="white"/>
<rect x="18" y="44" width="4" height="4" fill="white"/>
<rect x="58" y="44" width="4" height="4" fill="white"/>
<rect x="54" y="44" width="4" height="4" fill="white"/>
<rect x="26" y="48" width="8" height="4" fill="white"/>
<rect x="46" y="48" width="8" height="4" fill="white"/>
<rect x="34" y="52" width="12" height="4" fill="white"/>
<rect x="34" y="50" width="12" height="2" fill="#FF5555"/>
<rect x="18" y="48" width="8" height="8" fill="#1FA824"/>
<rect x="18" y="48" width="8" height="8" fill="#1FA824"/>
<rect x="18" y="48" width="8" height="8" fill="#1FA824"/>
<rect x="26" y="52" width="8" height="8" fill="#1FA824"/>
<rect x="26" y="52" width="8" height="8" fill="#1FA824"/>
<rect x="26" y="52" width="8" height="8" fill="#1FA824"/>
<rect x="46" y="52" width="8" height="8" fill="#1FA824"/>
<rect x="46" y="52" width="8" height="8" fill="#1FA824"/>
<rect x="46" y="52" width="8" height="8" fill="#1FA824"/>
<rect x="54" y="48" width="8" height="8" fill="#1FA824"/>
<rect x="54" y="48" width="8" height="8" fill="#1FA824"/>
<rect x="54" y="48" width="8" height="8" fill="#1FA824"/>
<rect x="34" y="56" width="12" height="8" fill="#1FA824"/>
<rect x="34" y="56" width="12" height="8" fill="#1FA824"/>
<rect x="34" y="56" width="12" height="8" fill="#1FA824"/>
<rect x="32" y="36" width="2" height="2" fill="black"/>
<rect x="32" y="36" width="2" height="2" fill="black"/>
<rect x="39" y="27" width="2" height="2" fill="black"/>
<rect x="39" y="27" width="2" height="2" fill="black"/>
<rect x="45" y="34" width="2" height="2" fill="black"/>
<rect x="45" y="34" width="2" height="2" fill="black"/>
<rect x="39" y="44" width="2" height="2" fill="black"/>
<rect x="39" y="44" width="2" height="2" fill="black"/>
<rect width="75" height="75" transform="matrix(1 0 0 -1 2 77)" fill="white"/>
<rect x="1" y="1" width="77" height="77" rx="3" stroke="#32517D" stroke-width="2"/>
<rect x="28" y="8" width="8" height="4" fill="black"/>
<rect x="28" y="68" width="8" height="4" fill="black"/>
<rect x="12" y="24" width="8" height="4" fill="black"/>
<rect x="60" y="24" width="8" height="4" fill="black"/>
<rect x="12" y="52" width="8" height="4" fill="black"/>
<rect x="60" y="52" width="8" height="4" fill="black"/>
<rect x="36" y="12" width="8" height="4" fill="black"/>
<rect x="36" y="64" width="8" height="4" fill="black"/>
<rect x="44" y="8" width="8" height="4" fill="black"/>
<rect x="44" y="68" width="8" height="4" fill="black"/>
<rect x="24" y="12" width="4" height="4" fill="black"/>
<rect x="24" y="64" width="4" height="4" fill="black"/>
<rect x="52" y="64" width="4" height="4" fill="black"/>
<rect x="20" y="16" width="4" height="8" fill="black"/>
<rect x="20" y="56" width="4" height="8" fill="black"/>
<rect x="56" y="56" width="4" height="8" fill="black"/>
<rect x="8" y="28" width="4" height="8" fill="black"/>
<rect x="68" y="28" width="4" height="8" fill="black"/>
<rect x="12" y="36" width="4" height="8" fill="black"/>
<rect x="64" y="36" width="4" height="8" fill="black"/>
<rect x="8" y="44" width="4" height="8" fill="black"/>
<rect x="68" y="44" width="4" height="8" fill="black"/>
<rect x="56" y="16" width="4" height="8" fill="black"/>
<rect x="52" y="12" width="4" height="4" fill="black"/>
<rect x="28" y="16" width="8" height="4" fill="#FFC4E7"/>
<rect x="28" y="60" width="8" height="4" fill="#FFC4E7"/>
<rect x="44" y="16" width="8" height="4" fill="#FFC4E7"/>
<rect x="44" y="60" width="8" height="4" fill="#FFC4E7"/>
<rect x="24" y="20" width="32" height="36" fill="#FFC4E7"/>
<rect x="20" y="24" width="4" height="32" fill="#FFC4E7"/>
<rect x="56" y="24" width="4" height="32" fill="#FFC4E7"/>
<rect x="24" y="56" width="32" height="4" fill="#FFC4E7"/>
<rect x="16" y="32" width="4" height="4" fill="#FFC4E7"/>
<rect x="60" y="32" width="4" height="4" fill="#FFC4E7"/>
<rect x="60" y="44" width="4" height="4" fill="#FFC4E7"/>
<rect x="16" y="44" width="4" height="4" fill="#FFC4E7"/>
<rect x="32" y="32" width="16" height="16" fill="#DA408A"/>
<rect x="36" y="36" width="8" height="8" fill="#FBE964"/>
</svg>
