<svg width="79" height="79" viewBox="0 0 79 79" fill="none" xmlns="http://www.w3.org/2000/svg">
<rect width="75" height="75" transform="translate(2 2)" fill="white"/>
<rect x="1" y="1" width="77" height="77" rx="3" stroke="#32517D" stroke-width="2"/>
<rect x="38" y="12" width="4" height="4" fill="black"/>
<rect x="38" y="12" width="4" height="4" fill="black"/>
<rect x="42" y="16" width="4" height="4" fill="black"/>
<rect x="50" y="28" width="4" height="4" fill="black"/>
<rect x="46" y="24" width="4" height="4" fill="black"/>
<rect x="46" y="20" width="4" height="4" fill="black"/>
<rect x="30" y="20" width="4" height="4" fill="black"/>
<rect x="30" y="24" width="4" height="4" fill="black"/>
<rect x="34" y="16" width="4" height="4" fill="black"/>
<rect x="26" y="28" width="4" height="4" fill="black"/>
<rect x="22" y="36" width="4" height="4" fill="black"/>
<rect x="62" y="48" width="4" height="4" fill="black"/>
<rect x="62" y="44" width="4" height="4" fill="black"/>
<rect x="14" y="48" width="4" height="4" fill="black"/>
<rect x="54" y="56" width="4" height="4" fill="black"/>
<rect x="58" y="56" width="4" height="4" fill="black"/>
<rect x="30" y="60" width="4" height="4" fill="black"/>
<rect x="26" y="60" width="4" height="4" fill="black"/>
<rect x="38" y="64" width="4" height="4" fill="black"/>
<rect x="34" y="64" width="4" height="4" fill="black"/>
<rect x="50" y="60" width="4" height="4" fill="black"/>
<rect x="46" y="60" width="4" height="4" fill="black"/>
<rect x="42" y="64" width="4" height="4" fill="black"/>
<rect x="22" y="56" width="4" height="4" fill="black"/>
<rect x="18" y="56" width="4" height="4" fill="black"/>
<rect x="62" y="52" width="4" height="4" fill="black"/>
<rect x="14" y="52" width="4" height="4" fill="black"/>
<rect x="14" y="44" width="4" height="4" fill="black"/>
<rect x="58" y="40" width="4" height="4" fill="black"/>
<rect x="18" y="40" width="4" height="4" fill="black"/>
<rect x="22" y="32" width="4" height="4" fill="black"/>
<rect x="54" y="36" width="4" height="4" fill="black"/>
<rect x="54" y="32" width="4" height="4" fill="black"/>
<rect x="38" y="16" width="4" height="4" fill="#FF5555"/>
<rect x="22" y="40" width="4" height="4" fill="#FF5555"/>
<rect x="54" y="40" width="4" height="4" fill="#FF5555"/>
<rect x="42" y="20" width="4" height="4" fill="#FF5555"/>
<rect x="38" y="20" width="4" height="4" fill="#FF5555"/>
<rect x="34" y="20" width="4" height="4" fill="#FF5555"/>
<rect x="42" y="28" width="4" height="4" fill="#D9D9D9"/>
<rect x="38" y="28" width="4" height="4" fill="#D9D9D9"/>
<rect x="34" y="28" width="4" height="4" fill="#FF5555"/>
<rect x="26" y="32" width="28" height="18" fill="#FF5555"/>
<rect x="38" y="32" width="4" height="4" fill="#FF5555"/>
<rect x="26" y="32" width="12" height="4" fill="#FF5555"/>
<rect x="42" y="28" width="4" height="4" fill="#FF5555"/>
<rect x="38" y="28" width="4" height="4" fill="#FF5555"/>
<rect x="30" y="28" width="4" height="4" fill="#FF5555"/>
<rect x="46" y="28" width="4" height="4" fill="#FF5555"/>
<rect x="42" y="24" width="4" height="4" fill="#FF5555"/>
<rect x="38" y="24" width="4" height="4" fill="#FF5555"/>
<rect x="34" y="24" width="4" height="4" fill="#FF5555"/>
<rect x="22" y="44" width="4" height="4" fill="white"/>
<rect x="18" y="44" width="4" height="4" fill="white"/>
<rect x="58" y="44" width="4" height="4" fill="white"/>
<rect x="54" y="44" width="4" height="4" fill="white"/>
<rect x="26" y="48" width="8" height="4" fill="white"/>
<rect x="46" y="48" width="8" height="4" fill="white"/>
<rect x="34" y="52" width="12" height="4" fill="white"/>
<rect x="34" y="50" width="12" height="2" fill="#FF5555"/>
<rect x="18" y="48" width="8" height="8" fill="#1FA824"/>
<rect x="18" y="48" width="8" height="8" fill="#1FA824"/>
<rect x="18" y="48" width="8" height="8" fill="#1FA824"/>
<rect x="26" y="52" width="8" height="8" fill="#1FA824"/>
<rect x="26" y="52" width="8" height="8" fill="#1FA824"/>
<rect x="26" y="52" width="8" height="8" fill="#1FA824"/>
<rect x="46" y="52" width="8" height="8" fill="#1FA824"/>
<rect x="46" y="52" width="8" height="8" fill="#1FA824"/>
<rect x="46" y="52" width="8" height="8" fill="#1FA824"/>
<rect x="54" y="48" width="8" height="8" fill="#1FA824"/>
<rect x="54" y="48" width="8" height="8" fill="#1FA824"/>
<rect x="54" y="48" width="8" height="8" fill="#1FA824"/>
<rect x="34" y="56" width="12" height="8" fill="#1FA824"/>
<rect x="34" y="56" width="12" height="8" fill="#1FA824"/>
<rect x="34" y="56" width="12" height="8" fill="#1FA824"/>
<rect x="32" y="36" width="2" height="2" fill="black"/>
<rect x="32" y="36" width="2" height="2" fill="black"/>
<rect x="39" y="27" width="2" height="2" fill="black"/>
<rect x="39" y="27" width="2" height="2" fill="black"/>
<rect x="45" y="34" width="2" height="2" fill="black"/>
<rect x="45" y="34" width="2" height="2" fill="black"/>
<rect x="39" y="44" width="2" height="2" fill="black"/>
<rect x="39" y="44" width="2" height="2" fill="black"/>
</svg>
